<?xml version="1.0" encoding="UTF-8"?>
<svg version="1.1" xmlns="http://www.w3.org/2000/svg" width="500" height="500">
<path d="M0 0 C165 0 330 0 500 0 C500 165 500 330 500 500 C335 500 170 500 0 500 C0 335 0 170 0 0 Z " fill="#FEFEFE" transform="translate(0,0)"/>
<path d="M0 0 C-0.165 0.515625 -0.33 1.03125 -0.5 1.5625 C-1.21923011 5.06874677 -1.539999 7.40000665 -1 11 C0.85054863 13.26369437 2.86919231 15.17717699 5.01953125 17.15625 C8.37995617 20.28469292 9.89030508 22.60138974 10.25 27.1875 C10 30 10 30 9 32 C11.06295292 30.89290509 11.06295292 30.89290509 13 29 C13.80946422 25.89802603 13.80946422 25.89802603 14 23 C15.9375 23.5625 15.9375 23.5625 18 25 C19.11281001 28.93192869 19.51826056 31.03107807 17.5625 34.6875 C17.046875 35.450625 16.53125 36.21375 16 37 C16 38.32 16 39.64 16 41 C18.97 41.495 18.97 41.495 22 42 C22.55558263 47.33359321 21.80289709 50.6908676 18.73828125 55.13671875 C13.42163502 60.83568561 6.36865104 62.52824602 -1.1640625 62.95703125 C-1.76992187 62.97121094 -2.37578125 62.98539063 -3 63 C-2.67 61.02 -2.34 59.04 -2 57 C-3.32 57 -4.64 57 -6 57 C-6 57.99 -6 58.98 -6 60 C-9.73052567 61.24350856 -13.12552043 61.52198871 -17 61 C-24.28574598 57.35712701 -27.11096373 51.22259068 -30 44 C-30.66 44 -31.32 44 -32 44 C-32.66297974 37.63539448 -30.94250939 33.98710589 -27 29 C-23.71875 26 -23.71875 26 -21 26 C-21.01160156 26.63808594 -21.02320313 27.27617187 -21.03515625 27.93359375 C-21.04417969 28.75988281 -21.05320313 29.58617187 -21.0625 30.4375 C-21.07410156 31.26121094 -21.08570313 32.08492187 -21.09765625 32.93359375 C-21.23267348 34.99163938 -21.23267348 34.99163938 -20 36 C-19.59007812 35.38511719 -19.18015625 34.77023438 -18.7578125 34.13671875 C-15.37890625 29.06835938 -15.37890625 29.06835938 -12 24 C-11.77849655 20.43415759 -11.68203028 16.9071021 -11.69726562 13.3359375 C-11.58200189 9.08233368 -11.37965008 7.4665505 -8.59375 4.04296875 C-3.46080306 0 -3.46080306 0 0 0 Z " fill="#FDA84A" transform="translate(255,132)"/>
<path d="M0 0 C5.39672766 -0.35978184 5.39672766 -0.35978184 7.67431641 0.99853516 C9.77269423 4.1665833 9.42711962 7.53558305 9.3984375 11.2109375 C9.40130768 12.01608795 9.40417786 12.8212384 9.40713501 13.65078735 C9.40917586 15.35378726 9.40364446 17.0568106 9.39111328 18.75976562 C9.37510098 21.35861102 9.39093876 23.9558914 9.41015625 26.5546875 C9.408173 28.21094092 9.40432764 29.86719337 9.3984375 31.5234375 C9.40754654 32.68460587 9.40754654 32.68460587 9.4168396 33.86923218 C9.35786634 38.42612541 8.74735177 41.33049838 6 45 C1.19942488 44.52935538 -2.09186591 43.8617627 -6 41 C-7.44140625 38.65234375 -7.44140625 38.65234375 -8.5625 35.9375 C-8.93503906 35.05964844 -9.30757813 34.18179688 -9.69140625 33.27734375 C-10.12324219 32.19582031 -10.55507813 31.11429687 -11 30 C-11.34401855 29.14164551 -11.68803711 28.28329102 -12.04248047 27.39892578 C-13.03033571 24.93341641 -14.01593051 22.46702233 -15 20 C-15.02505615 20.72179443 -15.0501123 21.44358887 -15.07592773 22.18725586 C-15.19151302 25.437535 -15.31440774 28.68749688 -15.4375 31.9375 C-15.47681641 33.07380859 -15.51613281 34.21011719 -15.55664062 35.38085938 C-15.59853516 36.46044922 -15.64042969 37.54003906 -15.68359375 38.65234375 C-15.73858032 40.15269165 -15.73858032 40.15269165 -15.79467773 41.68334961 C-16 44 -16 44 -17 45 C-21.03160191 45.26293056 -22.55892734 45.29404844 -26 43 C-26.27911945 40.04362792 -26.37175437 37.29958645 -26.328125 34.34375 C-26.32625183 33.48567749 -26.32437866 32.62760498 -26.32244873 31.74353027 C-26.31572066 29.92777629 -26.30179121 28.11203698 -26.28125 26.29638672 C-26.2501258 23.51125681 -26.24028333 20.72669273 -26.234375 17.94140625 C-26.22520393 16.17968058 -26.21482783 14.41796068 -26.203125 12.65625 C-26.19887512 11.81976929 -26.19462524 10.98328857 -26.19024658 10.12145996 C-26.11719031 4.23438063 -26.11719031 4.23438063 -25 2 C-23.08529156 1.86452535 -21.16781519 1.76779131 -19.25 1.6875 C-18.18265625 1.62949219 -17.1153125 1.57148438 -16.015625 1.51171875 C-13 2 -13 2 -10.84375 4.03125 C-8.67662658 7.52068602 -6.92092364 11.06547166 -5.25 14.8125 C-4.93417969 15.50537109 -4.61835938 16.19824219 -4.29296875 16.91210938 C-3.52231755 18.60520671 -2.76026638 20.30221412 -2 22 C-1.97494385 21.40461426 -1.9498877 20.80922852 -1.92407227 20.19580078 C-1.80822506 17.50530864 -1.68544804 14.8151766 -1.5625 12.125 C-1.52318359 11.18785156 -1.48386719 10.25070312 -1.44335938 9.28515625 C-1.40146484 8.38925781 -1.35957031 7.49335938 -1.31640625 6.5703125 C-1.27974854 5.74289551 -1.24309082 4.91547852 -1.20532227 4.06298828 C-1 2 -1 2 0 0 Z " fill="#080808" transform="translate(331,297)"/>
<path d="M0 0 C3.61689695 -0.37169692 6.57577497 -0.28984261 10 1 C12.86144725 4.65793256 14.40741434 8.66375191 16 13 C16.33902344 13.88816406 16.67804688 14.77632813 17.02734375 15.69140625 C18.19951394 18.97024176 19 21.49580357 19 25 C19.66 25 20.32 25 21 25 C21.10441406 24.35289062 21.20882812 23.70578125 21.31640625 23.0390625 C22.21772072 19.03207589 23.56206319 15.24073608 24.9375 11.375 C25.20240234 10.611875 25.46730469 9.84875 25.74023438 9.0625 C25.99998047 8.32773437 26.25972656 7.59296875 26.52734375 6.8359375 C26.76187256 6.17126465 26.99640137 5.5065918 27.23803711 4.82177734 C28 3 28 3 30 0 C36.5038267 0.61356856 36.5038267 0.61356856 38.66015625 2.29296875 C45.78093243 11.36521129 43.22165833 33.04022695 43 44 C41.078125 43.62890625 41.078125 43.62890625 39 43 C37.75 40.9375 37.75 40.9375 37 39 C36.34 39 35.68 39 35 39 C34.93941406 37.75863281 34.87882812 36.51726562 34.81640625 35.23828125 C34.73196377 33.59634423 34.64731764 31.95441768 34.5625 30.3125 C34.52318359 29.49587891 34.48386719 28.67925781 34.44335938 27.83789062 C34.23101997 23.80344189 33.95552078 19.94252691 33 16 C32.52820313 17.59328125 32.52820313 17.59328125 32.046875 19.21875 C27.42602201 34.58467488 27.42602201 34.58467488 24 40 C22.19140625 40.94140625 22.19140625 40.94140625 20 41 C16.02382146 38.92334761 14.61551897 36.5466683 13.19921875 32.453125 C12.67781975 30.7239283 12.17433425 28.98924425 11.6875 27.25 C11.42388672 26.36183594 11.16027344 25.47367187 10.88867188 24.55859375 C10.24341655 22.37645755 9.61457007 20.19093752 9 18 C8.95512451 18.74685059 8.91024902 19.49370117 8.86401367 20.26318359 C8.65318327 23.63489474 8.42062661 27.00476024 8.1875 30.375 C8.11724609 31.550625 8.04699219 32.72625 7.97460938 33.9375 C7.89404297 35.05898438 7.81347656 36.18046875 7.73046875 37.3359375 C7.66239014 38.37282715 7.59431152 39.4097168 7.52416992 40.47802734 C7 43 7 43 4 45 C1.3125 44.125 1.3125 44.125 -1 43 C-1.11995 28.62629889 -0.94730645 14.34492627 0 0 Z " fill="#080808" transform="translate(188,298)"/>
<path d="M0 0 C1.7325 0.4640625 1.7325 0.4640625 3.5 0.9375 C4.36625 1.123125 5.2325 1.30875 6.125 1.5 C10.7645038 4.30812072 12.96922051 8.84185338 14.27832031 14.01049805 C14.88435602 17.50026211 15.37247644 20.98552611 15.8125 24.5 C15.98072266 25.69302734 16.14894531 26.88605469 16.32226562 28.11523438 C17.09077507 33.75828947 17.72582134 39.24178403 17.5 44.9375 C11.75 44.0625 11.75 44.0625 9.5 42.9375 C9.5 42.2775 9.5 41.6175 9.5 40.9375 C8.84 40.9375 8.18 40.9375 7.5 40.9375 C7.5 38.6275 7.5 36.3175 7.5 33.9375 C3.87 33.9375 0.24 33.9375 -3.5 33.9375 C-3.5 36.9075 -3.5 39.8775 -3.5 42.9375 C-6.3125 43.5625 -6.3125 43.5625 -9.5 43.9375 C-10.49 43.2775 -11.48 42.6175 -12.5 41.9375 C-12.79296875 39.1171875 -12.79296875 39.1171875 -12.6875 35.8125 C-12.66042969 34.71679688 -12.63335937 33.62109375 -12.60546875 32.4921875 C-12.57066406 31.64914062 -12.53585937 30.80609375 -12.5 29.9375 C-13.16 29.9375 -13.82 29.9375 -14.5 29.9375 C-16.35776765 26.80251708 -16.70140476 24.56278568 -16.5 20.9375 C-14.52 21.2675 -12.54 21.5975 -10.5 21.9375 C-10.41363281 20.76832031 -10.32726562 19.59914063 -10.23828125 18.39453125 C-10.09752814 16.84624699 -9.95553555 15.29807507 -9.8125 13.75 C-9.75900391 12.98107422 -9.70550781 12.21214844 -9.65039062 11.41992188 C-9.23773436 7.23953452 -8.78016494 5.29963055 -6.13671875 1.8828125 C-3.5 -0.0625 -3.5 -0.0625 0 0 Z " fill="#080808" transform="translate(283.5,297.0625)"/>
<path d="M0 0 C3.50475196 0.96898919 4.71291161 1.83397869 6.83984375 4.78515625 C9.237525 11.56454253 9.23980207 18.33556613 9.27734375 25.47265625 C9.31021484 26.58705078 9.34308594 27.70144531 9.37695312 28.84960938 C9.43037519 36.95519299 9.43037519 36.95519299 6.546875 41.0078125 C3.65395807 42.9072024 1.51970199 43.62740517 -1.96875 43.40234375 C-7.71367203 41.78434432 -12.06131143 37.53644018 -15.16015625 32.59765625 C-18.44568333 23.35711135 -18.11104624 13.8041961 -14.16015625 4.78515625 C-10.49287994 -1.24810477 -6.4176039 -0.57459001 0 0 Z " fill="#050505" transform="translate(175.16015625,298.21484375)"/>
<path d="M0 0 C3.10632621 2.23655487 4.62330599 3.57201362 5.60229492 7.28320312 C6.38906673 12.65778671 6.26964815 18.07781244 6.3125 23.5 C6.34150391 24.72332031 6.37050781 25.94664062 6.40039062 27.20703125 C6.40876953 28.38652344 6.41714844 29.56601563 6.42578125 30.78125 C6.44036377 31.85439453 6.45494629 32.92753906 6.4699707 34.03320312 C5.88159821 37.74743819 4.67525056 39.39427104 2 42 C-3.81972743 42.96995457 -7.41766142 41.89792259 -12.2421875 38.55859375 C-15.105569 36.01972882 -16.38632051 33.47561736 -18 30 C-18.4125 29.236875 -18.825 28.47375 -19.25 27.6875 C-21.47270643 19.72280197 -19.78048997 12.20843083 -16.625 4.75 C-12.53056589 -2.17904233 -7.24910768 -1.76126468 0 0 Z " fill="#060606" transform="translate(363,214)"/>
<path d="M0 0 C2.9375 0.75 2.9375 0.75 6 2 C7.58001217 5.66275549 7.11068363 9.82859376 7.0625 13.75 C7.05798828 14.44738281 7.05347656 15.14476562 7.04882812 15.86328125 C7.0371002 17.57555803 7.01916653 19.28779033 7 21 C10.465 20.505 10.465 20.505 14 20 C14.04898438 18.87980469 14.09796875 17.75960937 14.1484375 16.60546875 C14.22347856 15.13278797 14.29902582 13.66013293 14.375 12.1875 C14.42140625 11.08051758 14.42140625 11.08051758 14.46875 9.95117188 C14.67346148 6.18106885 14.86433827 4.20349259 17 1 C22.75 2.625 22.75 2.625 25 6 C25.16699219 7.99853516 25.16699219 7.99853516 25.046875 10.2890625 C25.00554443 11.14089111 24.96421387 11.99271973 24.92163086 12.87036133 C24.86499268 13.77939209 24.80835449 14.68842285 24.75 15.625 C24.6991626 16.55401123 24.6483252 17.48302246 24.59594727 18.44018555 C24.08642781 27.00552194 23.14756276 35.49912249 22 44 C18.51925134 44.3164317 16.6078377 44.39851611 13.640625 42.453125 C11.39410374 39.09404083 11.60178026 36.75193301 11.75 32.75 C11.78609375 31.48671875 11.8221875 30.2234375 11.859375 28.921875 C11.90578125 27.95765625 11.9521875 26.9934375 12 26 C10.02 26 8.04 26 6 26 C6.33 31.94 6.66 37.88 7 44 C2 45 2 45 -0.77758789 43.44555664 C-3.56667073 40.37643187 -3.60955349 38.96953865 -3.55859375 34.87109375 C-3.55150391 33.67033203 -3.54441406 32.46957031 -3.53710938 31.23242188 C-3.50423828 29.98009766 -3.47136719 28.72777344 -3.4375 27.4375 C-3.43169922 26.21224609 -3.42589844 24.98699219 -3.41992188 23.72460938 C-3.18887692 6.37775383 -3.18887692 6.37775383 0 0 Z " fill="#060606" transform="translate(235,212)"/>
<path d="M0 0 C2.9375 0.75 2.9375 0.75 6 2 C7.58001217 5.66275549 7.11068363 9.82859376 7.0625 13.75 C7.05798828 14.44738281 7.05347656 15.14476562 7.04882812 15.86328125 C7.0371002 17.57555803 7.01916653 19.28779033 7 21 C10.465 20.505 10.465 20.505 14 20 C14.04898438 18.87980469 14.09796875 17.75960937 14.1484375 16.60546875 C14.22347856 15.13278797 14.29902582 13.66013293 14.375 12.1875 C14.42140625 11.08051758 14.42140625 11.08051758 14.46875 9.95117188 C14.67346148 6.18106885 14.86433827 4.20349259 17 1 C22.75 2.625 22.75 2.625 25 6 C25.16699219 7.99853516 25.16699219 7.99853516 25.046875 10.2890625 C25.00554443 11.14089111 24.96421387 11.99271973 24.92163086 12.87036133 C24.86499268 13.77939209 24.80835449 14.68842285 24.75 15.625 C24.6991626 16.55401123 24.6483252 17.48302246 24.59594727 18.44018555 C24.08642781 27.00552194 23.14756276 35.49912249 22 44 C18.51925134 44.3164317 16.6078377 44.39851611 13.640625 42.453125 C11.39410374 39.09404083 11.60178026 36.75193301 11.75 32.75 C11.78609375 31.48671875 11.8221875 30.2234375 11.859375 28.921875 C11.90578125 27.95765625 11.9521875 26.9934375 12 26 C10.02 26 8.04 26 6 26 C6.33 31.94 6.66 37.88 7 44 C2 45 2 45 -0.77758789 43.44555664 C-3.56667073 40.37643187 -3.60955349 38.96953865 -3.55859375 34.87109375 C-3.55150391 33.67033203 -3.54441406 32.46957031 -3.53710938 31.23242188 C-3.50423828 29.98009766 -3.47136719 28.72777344 -3.4375 27.4375 C-3.43169922 26.21224609 -3.42589844 24.98699219 -3.41992188 23.72460938 C-3.18887692 6.37775383 -3.18887692 6.37775383 0 0 Z " fill="#060606" transform="translate(125,212)"/>
<path d="M0 0 C4.05040562 2.69208778 7.33681473 5.65014737 8.44140625 10.52734375 C8.70960109 15.83760154 7.50330712 19.20548383 3.93359375 23.28515625 C-0.70343336 24.83083195 -5.19112276 24.34251253 -10.06640625 24.28515625 C-10.72640625 29.56515625 -11.38640625 34.84515625 -12.06640625 40.28515625 C-14.54140625 40.78015625 -14.54140625 40.78015625 -17.06640625 41.28515625 C-20.38575078 37.64458483 -21.78153866 35.22286112 -22.06640625 30.28515625 C-21.83184861 28.27466222 -21.59316132 26.26451609 -21.328125 24.2578125 C-20.96738447 20.16044618 -20.94755122 16.08404776 -20.94140625 11.97265625 C-20.9369751 11.18342773 -20.93254395 10.39419922 -20.92797852 9.58105469 C-20.92983154 8.82727539 -20.93168457 8.07349609 -20.93359375 7.296875 C-20.93472168 6.62100342 -20.93584961 5.94513184 -20.93701172 5.2487793 C-21.07455579 3.16148319 -21.50132979 1.29547045 -22.06640625 -0.71484375 C-13.89940599 -3.99275542 -7.89725558 -4.29499865 0 0 Z " fill="#070707" transform="translate(256.06640625,300.71484375)"/>
<path d="M0 0 C2.47730384 2.55988064 3 3.38813866 3 7 C-2.28 7 -7.56 7 -13 7 C-13 9.64 -13 12.28 -13 15 C-12.05125 15.103125 -11.1025 15.20625 -10.125 15.3125 C-7 16 -7 16 -5 19 C-5 19.99 -5 20.98 -5 22 C-7.31 22.33 -9.62 22.66 -12 23 C-12.33 26.63 -12.66 30.26 -13 34 C-10.6796875 33.566875 -10.6796875 33.566875 -8.3125 33.125 C-3.57993348 32.62754272 -3.57993348 32.62754272 -1.1875 34.1640625 C0.1875 35.75 0.1875 35.75 2 39 C1.67 39.99 1.34 40.98 1 42 C-2.66305927 42.3899835 -6.32746505 42.71286612 -10 43 C-10.92941406 43.07992187 -11.85882813 43.15984375 -12.81640625 43.2421875 C-13.68136719 43.28601563 -14.54632813 43.32984375 -15.4375 43.375 C-16.21996094 43.42398438 -17.00242188 43.47296875 -17.80859375 43.5234375 C-20 43 -20 43 -22.30078125 40.99609375 C-24.52072699 37.0818446 -24.21349984 34.00150745 -23.75 29.6875 C-23.62015437 28.08491858 -23.49392878 26.48204026 -23.37109375 24.87890625 C-23.30519043 24.06953613 -23.23928711 23.26016602 -23.17138672 22.42626953 C-22.90526384 18.658849 -22.83187879 14.9007807 -22.8125 11.125 C-22.79832031 9.84882813 -22.78414062 8.57265625 -22.76953125 7.2578125 C-22.98519369 4.20929596 -23.38263375 2.54431528 -25 0 C-20.35476732 -4.64523268 -5.13828 -2.56914 0 0 Z " fill="#080808" transform="translate(177,214)"/>
<path d="M0 0 C3.4640139 1.34711652 6.96927394 2.77472921 9 6 C8.6875 9.1875 8.6875 9.1875 8 12 C6.02 12 4.04 12 2 12 C1.34 9.69 0.68 7.38 0 5 C-3.52381687 7.54604597 -3.52381687 7.54604597 -6 11 C-6.2394987 14.24430167 -6.18519677 17.49783343 -6.1875 20.75 C-6.19974609 21.64460938 -6.21199219 22.53921875 -6.22460938 23.4609375 C-6.23549852 28.38283229 -5.93371467 32.38354285 -4 37 C-3.01 36.505 -3.01 36.505 -2 36 C-1.26924352 33.6859378 -0.59861742 31.35171131 0 29 C1.27875 29.103125 2.5575 29.20625 3.875 29.3125 C4.59429687 29.37050781 5.31359375 29.42851562 6.0546875 29.48828125 C8 30 8 30 10 33 C9.86002883 36.77922163 9.22818667 39.5125103 7.625 42.9375 C4.02348433 45.76726231 1.32376743 45.69452386 -3.16796875 45.49609375 C-7.49155134 44.73872135 -10.7365489 42.90357178 -14 40 C-19.25363896 32.11954156 -18.74716238 22.12276038 -18 13 C-16.82597128 8.29753902 -14.93936374 5.10039753 -11.8125 1.4375 C-7.80980718 -0.60832077 -4.40866577 -0.65313567 0 0 Z " fill="#0B0B0B" transform="translate(219,212)"/>
<path d="M0 0 C4.52610782 0.78064979 8.82605647 2.06433772 12.12890625 5.3671875 C12.31640625 8.4296875 12.31640625 8.4296875 12.12890625 11.3671875 C11.12890625 12.3671875 11.12890625 12.3671875 8.56640625 12.4296875 C7.76203125 12.4090625 6.95765625 12.3884375 6.12890625 12.3671875 C5.13890625 10.3871875 4.14890625 8.4071875 3.12890625 6.3671875 C0.00693147 7.6761447 0.00693147 7.6761447 -1.87109375 10.3671875 C-2.16561857 14.1525423 -2.14904756 17.94671262 -2.18359375 21.7421875 C-2.21259766 22.79664063 -2.24160156 23.85109375 -2.27148438 24.9375 C-2.27986328 25.95328125 -2.28824219 26.9690625 -2.296875 28.015625 C-2.31145752 28.94552246 -2.32604004 29.87541992 -2.34106445 30.83349609 C-1.73788095 34.08536018 -0.35404349 35.27159389 2.12890625 37.3671875 C2.45890625 34.7271875 2.78890625 32.0871875 3.12890625 29.3671875 C9.47397667 29.00803257 9.47397667 29.00803257 12.06640625 30.4296875 C13.75305354 33.50533845 13.484896 35.9259533 13.12890625 39.3671875 C10.92890625 43.9671875 10.92890625 43.9671875 8.12890625 45.3671875 C1.66216199 46.12926174 -3.92820238 45.99774582 -9.27734375 42.0078125 C-14.49484436 36.63685599 -14.14240241 29.36361955 -14.24609375 22.3046875 C-14.26736328 21.17123901 -14.26736328 21.17123901 -14.2890625 20.01489258 C-14.23050069 13.28248014 -12.71457517 7.89539059 -8.68359375 2.3671875 C-5.64099175 0.20355941 -3.7217191 -0.24011091 0 0 Z " fill="#0A0A0A" transform="translate(141.87109375,296.6328125)"/>
<path d="M0 0 C4.01983104 -0.1491092 8.03857698 -0.25756316 12.06054688 -0.32958984 C13.42639222 -0.35963327 14.79204668 -0.40048304 16.15722656 -0.45263672 C28.96315896 -0.92935391 28.96315896 -0.92935391 32.9921875 2.7734375 C35 6 35 6 34.62548828 8.20166016 C34.41907715 8.7951123 34.21266602 9.38856445 34 10 C30.13013042 10.07442057 26.7264085 10.04702186 23 9 C23.05220703 9.91652344 23.05220703 9.91652344 23.10546875 10.8515625 C23.42631451 21.69920479 21.61080852 32.30126113 20 43 C15.26970211 44.2168228 13.23720229 43.4634897 9 41 C9.52794344 29.84036797 11.13513082 19.00155528 13 8 C12.24074219 8.04640625 11.48148438 8.0928125 10.69921875 8.140625 C9.20841797 8.19476563 9.20841797 8.19476563 7.6875 8.25 C6.70136719 8.29640625 5.71523437 8.3428125 4.69921875 8.390625 C2 8 2 8 0.08203125 6.234375 C-1.21049933 3.56532268 -0.83671113 2.74225325 0 0 Z " fill="#060606" transform="translate(84,213)"/>
<path d="M0 0 C1.98 0 3.96 0 6 0 C6 0.66 6 1.32 6 2 C6.598125 2.226875 7.19625 2.45375 7.8125 2.6875 C10.59348403 4.35609042 11.5641916 6.1283832 13 9 C13 9.66 13 10.32 13 11 C15.3429247 8.81865631 16.91286514 7.1916967 18.25 4.25 C20 2 20 2 21.96484375 1.68359375 C23.97932221 1.68713413 25.99225179 1.83543047 28 2 C28.671875 3.7578125 28.671875 3.7578125 29 6 C27.890625 7.9296875 27.890625 7.9296875 26.25 9.875 C23.6503491 13.10049279 21.78692442 16.24745872 20 20 C19.34 20.66 18.68 21.32 18 22 C17.5368669 24.32134177 17.5368669 24.32134177 17.3671875 27.0078125 C17.28339844 27.99394531 17.19960938 28.98007812 17.11328125 29.99609375 C16.99533203 31.54490234 16.99533203 31.54490234 16.875 33.125 C16.78863281 34.16527344 16.70226562 35.20554687 16.61328125 36.27734375 C16.40077621 38.85101589 16.19670844 41.42508017 16 44 C11.9715651 44.18311068 9.51624755 43.94158017 6 42 C6.07686035 41.16976318 6.07686035 41.16976318 6.15527344 40.32275391 C7.64210453 25.66260472 7.64210453 25.66260472 3 12 C1.06860318 7.94406668 -0.41742557 4.59168128 0 0 Z " fill="#0A0A0A" transform="translate(343,298)"/>
<path d="M0 0 C5.61558442 1.46493506 5.61558442 1.46493506 7.15625 3.609375 C8.30760182 6.87153849 8.47005882 10.07592139 8.625 13.5 C8.66294678 14.20253906 8.70089355 14.90507812 8.73999023 15.62890625 C9.04631403 21.75260368 9.10449605 27.86956497 9 34 C10.12019531 33.94199219 11.24039062 33.88398438 12.39453125 33.82421875 C13.86714588 33.77732019 15.33980551 33.73182013 16.8125 33.6875 C17.55048828 33.64560547 18.28847656 33.60371094 19.04882812 33.56054688 C21.20703125 33.51171875 21.20703125 33.51171875 25 34 C27.99126252 37.28167636 28.1138374 39.71422444 28 44 C24.22958744 44.19670554 20.45866237 44.38078426 16.6875 44.5625 C15.0797168 44.64661133 15.0797168 44.64661133 13.43945312 44.73242188 C12.41142578 44.78076172 11.38339844 44.82910156 10.32421875 44.87890625 C9.37635498 44.9260376 8.42849121 44.97316895 7.4519043 45.02172852 C5 45 5 45 2 44 C2 43.34 2 42.68 2 42 C1.01 41.67 0.02 41.34 -1 41 C-1.02470696 35.64315122 -1.04286331 30.28633556 -1.05493164 24.92944336 C-1.0599624 23.10684634 -1.06678769 21.28425335 -1.07543945 19.46166992 C-1.08755997 16.84292606 -1.09324086 14.22423553 -1.09765625 11.60546875 C-1.10281754 10.78974899 -1.10797882 9.97402924 -1.11329651 9.1335907 C-1.1136246 5.82986071 -1.05225621 3.15676862 0 0 Z " fill="#070707" transform="translate(279,212)"/>
<path d="M0 0 C5.62773564 1.46810495 5.62773564 1.46810495 7.16943359 3.67089844 C8.2433549 6.68242379 8.3268991 9.31963379 8.4140625 12.515625 C8.45273437 13.76601562 8.49140625 15.01640625 8.53125 16.3046875 C8.5621875 17.60664063 8.593125 18.90859375 8.625 20.25 C8.66367187 21.56742188 8.70234375 22.88484375 8.7421875 24.2421875 C8.83645919 27.49456078 8.91931849 30.74726121 9 34 C14.28 34 19.56 34 25 34 C28 40 28 40 28 44 C24.10589113 44.28470551 20.21028687 44.52164029 16.3125 44.75 C15.20970703 44.83121094 14.10691406 44.91242188 12.97070312 44.99609375 C11.90400391 45.05410156 10.83730469 45.11210937 9.73828125 45.171875 C8.26935425 45.2661377 8.26935425 45.2661377 6.77075195 45.36230469 C2.94577532 44.86214914 1.50392938 43.94651049 -1 41 C-1.68995412 37.95674371 -1.60620299 35.00213462 -1.5234375 31.89453125 C-1.51873444 31.01472092 -1.51403137 30.13491058 -1.50918579 29.22843933 C-1.48785411 26.42232632 -1.43122268 23.61810783 -1.375 20.8125 C-1.35849331 18.91212709 -1.34414513 17.01173412 -1.33203125 15.11132812 C-1.19551761 1.19551761 -1.19551761 1.19551761 0 0 Z " fill="#070707" transform="translate(389,212)"/>
<path d="M0 0 C4.61502635 0.69819078 6.87678382 1.71047569 9.78222656 5.35205078 C12.6510657 11.59010798 11.8884231 19.18635236 11.875 25.9375 C11.89314205 27.59182858 11.91394948 29.2461302 11.9375 30.90039062 C11.98914962 34.93393676 12.00444502 38.96614149 12 43 C8.41117844 43.21110715 5.52992135 43.17040974 2.09301758 42.06518555 C-0.28658769 39.71722323 -0.35148093 39.18732094 -0.56762695 35.98754883 C-0.56683587 34.31050125 -0.53861372 32.63332354 -0.48828125 30.95703125 C-0.48120651 30.0734343 -0.47413177 29.18983734 -0.46684265 28.27946472 C-0.43884526 25.45628309 -0.3760987 22.63508241 -0.3125 19.8125 C-0.28742396 17.89911718 -0.26460958 15.98570328 -0.24414062 14.07226562 C-0.18900123 9.38074673 -0.1026932 4.69070923 0 0 Z " fill="#0A0A0A" transform="translate(263,213)"/>
<path d="M0 0 C4.36598968 1.36175875 7.19533684 2.26044911 10 6 C11.00229465 10.48195141 11.11658693 14.78596319 11.09765625 19.3671875 C11.0962413 20.04677521 11.09482635 20.72636292 11.09336853 21.42654419 C11.08781518 23.57607612 11.07527169 25.72550008 11.0625 27.875 C11.05747896 29.34114432 11.05291711 30.80729029 11.04882812 32.2734375 C11.03786111 35.84899283 11.02062919 39.42448586 11 43 C7.57920317 43.19735366 4.8083865 43.31316389 1.58691406 42.06518555 C-1.02007192 38.67249409 -0.49035796 35.10896306 -0.390625 30.95703125 C-0.38496521 30.0734343 -0.37930542 29.18983734 -0.37347412 28.27946472 C-0.35107867 25.45659257 -0.30087727 22.63498862 -0.25 19.8125 C-0.22993906 17.89910687 -0.21168758 15.98569385 -0.1953125 14.07226562 C-0.15120357 9.38102158 -0.08215485 4.69072582 0 0 Z " fill="#040404" transform="translate(373,213)"/>
<path d="M0 0 C4.91181685 1.47152926 7.2190363 2.57105781 10 7 C11.11062226 11.1018379 11.11507969 15.03563451 11.09765625 19.26953125 C11.0962413 19.95053391 11.09482635 20.63153656 11.09336853 21.33317566 C11.08780298 23.49299647 11.07525703 25.65271089 11.0625 27.8125 C11.05748054 29.28320162 11.05291841 30.75390488 11.04882812 32.22460938 C11.03784488 35.8164404 11.02060422 39.4082098 11 43 C7.57920317 43.19735366 4.8083865 43.31316389 1.58691406 42.06518555 C-1.02007192 38.67249409 -0.49035796 35.10896306 -0.390625 30.95703125 C-0.38496521 30.0734343 -0.37930542 29.18983734 -0.37347412 28.27946472 C-0.35107867 25.45659257 -0.30087727 22.63498862 -0.25 19.8125 C-0.22993906 17.89910687 -0.21168758 15.98569385 -0.1953125 14.07226562 C-0.15120357 9.38102158 -0.08215485 4.69072582 0 0 Z " fill="#040404" transform="translate(311,213)"/>
<path d="M0 0 C0.66 0.33 1.32 0.66 2 1 C3.92587195 10.3083811 2.93086274 21.30897858 -1 30 C-1.66 30 -2.32 30 -3 30 C-6.37795546 20.71062248 -5.98021926 11.869525 -1.97265625 2.86328125 C-1 1 -1 1 0 0 Z " fill="#E9E9E9" transform="translate(173,303)"/>
<path d="M0 0 C0.66 0 1.32 0 2 0 C3.55071327 8.72276214 4.27985553 18.58111949 1 27 C-0.57421875 28.75 -0.57421875 28.75 -2 30 C-4.04766875 25.77361169 -4.38369943 21.87374889 -4.375 17.25 C-4.37628906 16.54423828 -4.37757813 15.83847656 -4.37890625 15.11132812 C-4.26217126 9.33294614 -3.03849629 4.88329761 0 0 Z " fill="#EEEEEE" transform="translate(358,218)"/>
<path d="M0 0 C1.98 0 3.96 0 6 0 C8 2 8 2 8.265625 4.75 C8.26046875 5.8225 8.2553125 6.895 8.25 8 C8.25515625 9.0725 8.2603125 10.145 8.265625 11.25 C8 14 8 14 6 16 C4.02 16 2.04 16 0 16 C0 10.72 0 5.44 0 0 Z " fill="#D74B4B" transform="translate(192,149)"/>
<path d="M0 0 C2.5 0.125 2.5 0.125 3.5 1.125 C3.57271741 3.47813555 3.58370868 5.83333668 3.5625 8.1875 C3.55347656 9.47785156 3.54445313 10.76820313 3.53515625 12.09765625 C3.52355469 13.09667969 3.51195312 14.09570312 3.5 15.125 C1.5085944 15.50633299 -0.49279077 15.83825582 -2.5 16.125 C-3.5 15.125 -3.5 15.125 -3.6328125 12 C-3.63023437 10.72125 -3.62765625 9.4425 -3.625 8.125 C-3.62757813 6.84625 -3.63015625 5.5675 -3.6328125 4.25 C-3.45953902 0.17297695 -3.45953902 0.17297695 0 0 Z " fill="#D54545" transform="translate(314.5,148.875)"/>
<path d="M0 0 C1.2065625 0.0309375 1.2065625 0.0309375 2.4375 0.0625 C3.73839831 2.66429663 3.60590078 4.6594188 3.625 7.5625 C3.63917969 8.5421875 3.65335937 9.521875 3.66796875 10.53125 C3.4375 13.0625 3.4375 13.0625 1.4375 15.0625 C-1.1875 14.6875 -1.1875 14.6875 -3.5625 14.0625 C-3.58935938 11.91673363 -3.60883088 9.77087355 -3.625 7.625 C-3.63660156 6.43003906 -3.64820313 5.23507812 -3.66015625 4.00390625 C-3.53008299 0.08609959 -3.53008299 0.08609959 0 0 Z " fill="#D54242" transform="translate(262.5625,379.9375)"/>
<path d="M0 0 C0.721875 0.00257813 1.44375 0.00515625 2.1875 0.0078125 C2.909375 0.00523437 3.63125 0.00265625 4.375 0 C6.1875 0.1328125 6.1875 0.1328125 7.1875 1.1328125 C6.83866279 7.41188227 6.83866279 7.41188227 4.4375 10.0703125 C1.83054845 11.30137295 0.0353043 11.21296593 -2.8125 11.1328125 C-2.83938151 9.48706684 -2.85884123 7.84119837 -2.875 6.1953125 C-2.88660156 5.27878906 -2.89820313 4.36226563 -2.91015625 3.41796875 C-2.79196538 0.65230237 -2.76200837 0.20238854 0 0 Z " fill="#F7F7F7" transform="translate(247.8125,304.8671875)"/>
<path d="M0 0 C0.99 0 1.98 0 3 0 C3 3.96 3 7.92 3 12 C3.66 12 4.32 12 5 12 C5 8.04 5 4.08 5 0 C5.99 0 6.98 0 8 0 C8.05386629 2.12472576 8.09273071 4.24983652 8.125 6.375 C8.14820313 7.55835938 8.17140625 8.74171875 8.1953125 9.9609375 C8 13 8 13 6 15 C1.44444444 14.44444444 1.44444444 14.44444444 0 13 C-0.07258946 10.81360547 -0.08373783 8.62499611 -0.0625 6.4375 C-0.05347656 5.23996094 -0.04445313 4.04242188 -0.03515625 2.80859375 C-0.02355469 1.88175781 -0.01195312 0.95492188 0 0 Z " fill="#DA5A5A" transform="translate(269,380)"/>
<path d="M0 0 C2.31 0.33 4.62 0.66 7 1 C7 5.62 7 10.24 7 15 C6.01 14.67 5.02 14.34 4 14 C4 12.68 4 11.36 4 10 C3.34 10 2.68 10 2 10 C2 11.65 2 13.3 2 15 C1.34 15 0.68 15 0 15 C0 10.05 0 5.1 0 0 Z " fill="#D95858" transform="translate(280,380)"/>
<path d="M0 0 C1.98 0 3.96 0 6 0 C8 2 8 2 8.25 4.5 C8 7 8 7 6 9 C5.01 9 4.02 9 3 9 C3 10.98 3 12.96 3 15 C2.01 15 1.02 15 0 15 C0 10.05 0 5.1 0 0 Z " fill="#E17777" transform="translate(231,380)"/>
<path d="M0 0 C1.2065625 0.0309375 1.2065625 0.0309375 2.4375 0.0625 C2.7675 1.3825 3.0975 2.7025 3.4375 4.0625 C2.1175 3.7325 0.7975 3.4025 -0.5625 3.0625 C0.58923355 5.53050047 1.48533565 7.11033565 3.4375 9.0625 C3.625 12.125 3.625 12.125 3.4375 15.0625 C2.4375 16.0625 2.4375 16.0625 0 16.25 C-2.5625 16.0625 -2.5625 16.0625 -4.5625 14.0625 C-4.5625 13.0725 -4.5625 12.0825 -4.5625 11.0625 C-3.5725 11.0625 -2.5825 11.0625 -1.5625 11.0625 C-1.5625 11.7225 -1.5625 12.3825 -1.5625 13.0625 C-0.9025 13.0625 -0.2425 13.0625 0.4375 13.0625 C-1.31704385 9.88015895 -1.31704385 9.88015895 -3.5625 7.0625 C-3.6875 4.0625 -3.6875 4.0625 -3.5625 1.0625 C-2.5625 0.0625 -2.5625 0.0625 0 0 Z " fill="#D85151" transform="translate(174.5625,148.9375)"/>
<path d="M0 0 C2.31 0 4.62 0 7 0 C7 0.99 7 1.98 7 3 C5.68 3 4.36 3 3 3 C3 4.32 3 5.64 3 7 C3.99 7 4.98 7 6 7 C6 7.66 6 8.32 6 9 C5.01 9 4.02 9 3 9 C3 10.32 3 11.64 3 13 C4.32 13 5.64 13 7 13 C7 13.99 7 14.98 7 16 C4.69 16 2.38 16 0 16 C0 10.72 0 5.44 0 0 Z " fill="#D85252" transform="translate(160,149)"/>
<path d="M0 0 C1.66611905 -0.042721 3.33382885 -0.04063832 5 0 C6 1 6 1 6.25 4.3125 C5.99337817 8.09767206 5.56295176 9.33025858 3 12 C3.99 12.33 4.98 12.66 6 13 C6 13.99 6 14.98 6 16 C3.36 16 0.72 16 -2 16 C-1.34215037 12.70319035 -0.10579427 10.15882078 1.5625 7.25 C2.24505859 6.05117187 2.24505859 6.05117187 2.94140625 4.828125 C3.29074219 4.22484375 3.64007813 3.6215625 4 3 C3.01 3 2.02 3 1 3 C1 3.66 1 4.32 1 5 C0.34 5 -0.32 5 -1 5 C-0.67 3.35 -0.34 1.7 0 0 Z " fill="#D84E4E" transform="translate(334,149)"/>
<path d="M0 0 C1.66611905 -0.042721 3.33382885 -0.04063832 5 0 C6 1 6 1 6.25 4.3125 C5.99337817 8.09767206 5.56295176 9.33025858 3 12 C3.99 12.33 4.98 12.66 6 13 C6 13.99 6 14.98 6 16 C3.36 16 0.72 16 -2 16 C-1.34215037 12.70319035 -0.10579427 10.15882078 1.5625 7.25 C2.24505859 6.05117187 2.24505859 6.05117187 2.94140625 4.828125 C3.29074219 4.22484375 3.64007813 3.6215625 4 3 C3.01 3 2.02 3 1 3 C1 3.66 1 4.32 1 5 C0.34 5 -0.32 5 -1 5 C-0.67 3.35 -0.34 1.7 0 0 Z " fill="#D84E4E" transform="translate(323,149)"/>
<path d="M0 0 C1.66611905 -0.042721 3.33382885 -0.04063832 5 0 C6 1 6 1 6.25 4.3125 C5.99337817 8.09767206 5.56295176 9.33025858 3 12 C3.99 12.33 4.98 12.66 6 13 C6 13.99 6 14.98 6 16 C3.36 16 0.72 16 -2 16 C-1.34215037 12.70319035 -0.10579427 10.15882078 1.5625 7.25 C2.24505859 6.05117187 2.24505859 6.05117187 2.94140625 4.828125 C3.29074219 4.22484375 3.64007813 3.6215625 4 3 C3.01 3 2.02 3 1 3 C1 3.66 1 4.32 1 5 C0.34 5 -0.32 5 -1 5 C-0.67 3.35 -0.34 1.7 0 0 Z " fill="#D84E4E" transform="translate(301,149)"/>
<path d="M0 0 C2.31 0 4.62 0 7 0 C7 0.66 7 1.32 7 2 C5.68 2 4.36 2 3 2 C3 3.32 3 4.64 3 6 C3.99 6 4.98 6 6 6 C6 6.99 6 7.98 6 9 C5.01 9 4.02 9 3 9 C3 9.99 3 10.98 3 12 C4.32 12 5.64 12 7 12 C7 12.99 7 13.98 7 15 C4.69 15 2.38 15 0 15 C0 10.05 0 5.1 0 0 Z " fill="#D54444" transform="translate(320,380)"/>
<path d="M0 0 C2.31 0.33 4.62 0.66 7 1 C7 3.31 7 5.62 7 8 C6.0409375 8.3403125 6.0409375 8.3403125 5.0625 8.6875 C2.72806339 9.85250896 2.72806339 9.85250896 2.25 12.625 C2.1675 13.40875 2.085 14.1925 2 15 C1.34 15 0.68 15 0 15 C0 10.05 0 5.1 0 0 Z " fill="#DA5959" transform="translate(179,380)"/>
<path d="M0 0 C2.81197457 2.81197457 2.69902557 5.84011245 3.125 9.625 C3.21136719 10.33140625 3.29773438 11.0378125 3.38671875 11.765625 C3.59881183 13.50950141 3.80040991 15.2546484 4 17 C2.02 17 0.04 17 -2 17 C-2.3690205 5.47835991 -2.3690205 5.47835991 0 0 Z " fill="#EBEBEB" transform="translate(285,304)"/>
<path d="M0 0 C1.2065625 0.0309375 1.2065625 0.0309375 2.4375 0.0625 C2.7675 1.0525 3.0975 2.0425 3.4375 3.0625 C1.7875 2.7325 0.1375 2.4025 -1.5625 2.0625 C-0.80833718 5.16188099 -0.80833718 5.16188099 1.5625 6.9375 C2.18125 7.63875 2.8 8.34 3.4375 9.0625 C3.1875 11.8125 3.1875 11.8125 2.4375 14.0625 C0.7875 14.3925 -0.8625 14.7225 -2.5625 15.0625 C-3.2225 13.7425 -3.8825 12.4225 -4.5625 11.0625 C-2.0875 11.5575 -2.0875 11.5575 0.4375 12.0625 C-0.01625 11.65 -0.47 11.2375 -0.9375 10.8125 C-2.67977901 8.93619952 -3.68745014 7.46888711 -4.5625 5.0625 C-4.04814651 1.46202558 -3.82102251 0.09319567 0 0 Z " fill="#D95555" transform="translate(172.5625,379.9375)"/>
<path d="M0 0 C1.67542976 0.28604898 3.34385343 0.61781233 5 1 C5.33 2.32 5.66 3.64 6 5 C5.01 5 4.02 5 3 5 C3 4.34 3 3.68 3 3 C2.34 3 1.68 3 1 3 C1 5.97 1 8.94 1 12 C1.66 12 2.32 12 3 12 C3 11.01 3 10.02 3 9 C3.99 9 4.98 9 6 9 C5.67 10.65 5.34 12.3 5 14 C3.34385343 14.38218767 1.67542976 14.71395102 0 15 C-1 14 -1 14 -1.1328125 11.09375 C-1.13023437 9.9078125 -1.12765625 8.721875 -1.125 7.5 C-1.12757813 6.3140625 -1.13015625 5.128125 -1.1328125 3.90625 C-1 1 -1 1 0 0 Z " fill="#D64A4A" transform="translate(196,380)"/>
<path d="M0 0 C0.66 0 1.32 0 2 0 C2.33 3.96 2.66 7.92 3 12 C3.33 12 3.66 12 4 12 C4.33 8.04 4.66 4.08 5 0 C5.66 0 6.32 0 7 0 C7.02685412 2.31243792 7.04632841 4.6249627 7.0625 6.9375 C7.07410156 8.22527344 7.08570313 9.51304687 7.09765625 10.83984375 C7 14 7 14 6 15 C3.5 15.125 3.5 15.125 1 15 C0 14 0 14 -0.09765625 10.83984375 C-0.08025391 8.90818359 -0.08025391 8.90818359 -0.0625 6.9375 C-0.05347656 5.64714844 -0.04445312 4.35679687 -0.03515625 3.02734375 C-0.02355469 2.02832031 -0.01195312 1.02929688 0 0 Z " fill="#D54242" transform="translate(221,380)"/>
<path d="M0 0 C2.31 0 4.62 0 7 0 C7 0.66 7 1.32 7 2 C6.360625 2.103125 5.72125 2.20625 5.0625 2.3125 C4.381875 2.539375 3.70125 2.76625 3 3 C2.67 3.99 2.34 4.98 2 6 C2.99 6 3.98 6 5 6 C5 6.99 5 7.98 5 9 C4.01 9 3.02 9 2 9 C2 9.99 2 10.98 2 12 C3.65 12.33 5.3 12.66 7 13 C7 13.66 7 14.32 7 15 C4.69 15 2.38 15 0 15 C0 10.05 0 5.1 0 0 Z " fill="#D74B4B" transform="translate(205,380)"/>
<path d="M0 0 C2.64 0 5.28 0 8 0 C8 0.99 8 1.98 8 3 C7.34 3 6.68 3 6 3 C6 7.29 6 11.58 6 16 C5.01 16 4.02 16 3 16 C3 11.71 3 7.42 3 3 C2.01 3 1.02 3 0 3 C0 2.01 0 1.02 0 0 Z " fill="#D95656" transform="translate(181,149)"/>
<path d="M0 0 C0.99 0 1.98 0 3 0 C3 3.96 3 7.92 3 12 C3.99 12 4.98 12 6 12 C6 12.99 6 13.98 6 15 C4.02 15 2.04 15 0 15 C-0.84888195 9.62374766 -1.0024305 5.34629602 0 0 Z " fill="#D95454" transform="translate(296,380)"/>
<path d="M0 0 C0.99 0 1.98 0 3 0 C3.33 0.66 3.66 1.32 4 2 C4.33 1.34 4.66 0.68 5 0 C5.99 0 6.98 0 8 0 C7.690625 0.99 7.38125 1.98 7.0625 3 C5.91566793 6.97731122 5.43287644 10.88767379 5 15 C4.34 15 3.68 15 3 15 C2 10 1 5 0 0 Z " fill="#D64949" transform="translate(248,380)"/>
<path d="M0 0 C0.33 0 0.66 0 1 0 C1 3.96 1 7.92 1 12 C-0.98 12.99 -0.98 12.99 -3 14 C-4.32229189 11.35541621 -4.09677194 9.32238699 -4.0625 6.375 C-4.05347656 5.37210938 -4.04445312 4.36921875 -4.03515625 3.3359375 C-4.02355469 2.56507813 -4.01195312 1.79421875 -4 1 C-3.01 1.33 -2.02 1.66 -1 2 C-0.67 1.34 -0.34 0.68 0 0 Z " fill="#E89898" transform="translate(199,151)"/>
<path d="M0 0 C1.98 0 3.96 0 6 0 C6 0.66 6 1.32 6 2 C4.68 2 3.36 2 2 2 C2 3.32 2 4.64 2 6 C2.99 6 3.98 6 5 6 C5 6.99 5 7.98 5 9 C4.01 9 3.02 9 2 9 C2 10.98 2 12.96 2 15 C1.34 15 0.68 15 0 15 C0 10.05 0 5.1 0 0 Z " fill="#D54141" transform="translate(311,380)"/>
<path d="M0 0 C0.99 0 1.98 0 3 0 C3 4.95 3 9.9 3 15 C2.01 15 1.02 15 0 15 C0 10.05 0 5.1 0 0 Z " fill="#DA5B5B" transform="translate(305,380)"/>
<path d="M0 0 C0.99 0 1.98 0 3 0 C3 4.95 3 9.9 3 15 C2.01 15 1.02 15 0 15 C0 10.05 0 5.1 0 0 Z " fill="#DA5B5B" transform="translate(189,380)"/>
<path d="M0 0 C1.65 0 3.3 0 5 0 C5.33 0.99 5.66 1.98 6 3 C5.34 3 4.68 3 4 3 C4 5.97 4 8.94 4 12 C3.01 12 2.02 12 1 12 C0.83126522 10.56274129 0.66509263 9.12518162 0.5 7.6875 C0.4071875 6.88699219 0.314375 6.08648437 0.21875 5.26171875 C0 3 0 3 0 0 Z " fill="#E99B9B" transform="translate(260,380)"/>
<path d="M0 0 C0.99 0 1.98 0 3 0 C3 3.63 3 7.26 3 11 C2.01 11 1.02 11 0 11 C0 7.37 0 3.74 0 0 Z " fill="#DF6F6F" transform="translate(329,380)"/>
<path d="M0 0 C0.33 0.99 0.66 1.98 1 3 C1.99 3 2.98 3 4 3 C4 3.99 4 4.98 4 6 C3.01 6 2.02 6 1 6 C1 6.99 1 7.98 1 9 C2.32 9 3.64 9 5 9 C4.67 9.99 4.34 10.98 4 12 C4 11.34 4 10.68 4 10 C2.35 10 0.7 10 -1 10 C-1.125 3.375 -1.125 3.375 0 0 Z " fill="#DD6868" transform="translate(322,383)"/>
<path d="M0 0 C0.33 1.32 0.66 2.64 1 4 C4.0745356 3.2236068 4.0745356 3.2236068 6 1 C5.67 2.65 5.34 4.3 5 6 C4.01 6 3.02 6 2 6 C2 7.98 2 9.96 2 12 C1.34 12 0.68 12 0 12 C0 8.04 0 4.08 0 0 Z " fill="#D54343" transform="translate(232,383)"/>
<path d="M0 0 C0.99 0 1.98 0 3 0 C3 3.3 3 6.6 3 10 C2.01 10 1.02 10 0 10 C0 6.7 0 3.4 0 0 Z " fill="#F6D7D7" transform="translate(313,152)"/>
<path d="M0 0 C0.99 0 1.98 0 3 0 C2.67 1.65 2.34 3.3 2 5 C0.35 5.33 -1.3 5.66 -3 6 C-3.33 4.68 -3.66 3.36 -4 2 C-2.68 2.33 -1.36 2.66 0 3 C0 2.01 0 1.02 0 0 Z " fill="#D95656" transform="translate(199,389)"/>
<path d="M0 0 C2.31 0 4.62 0 7 0 C6.67 1.32 6.34 2.64 6 4 C4.35 3.67 2.7 3.34 1 3 C0.67 2.01 0.34 1.02 0 0 Z " fill="#D85050" transform="translate(168,391)"/>
<path d="M0 0 C0.33 0 0.66 0 1 0 C1.06058594 0.68707031 1.12117187 1.37414062 1.18359375 2.08203125 C1.26738281 2.98308594 1.35117188 3.88414062 1.4375 4.8125 C1.51871094 5.70582031 1.59992188 6.59914062 1.68359375 7.51953125 C1.93489767 10.12743559 1.93489767 10.12743559 3 13 C2.01 13 1.02 13 0 13 C0 8.71 0 4.42 0 0 Z " fill="#D43D3D" transform="translate(193,152)"/>
</svg>
